<svg id="Layer_1" data-name="Layer 1" xmlns="http://www.w3.org/2000/svg" viewBox="0 0 24 24"><defs><style>.cls-1{fill:#c13584;}.cls-2{fill:#fff;}</style></defs><title>instagram_24px</title><g id="instagram"><path class="cls-1" d="M0,11.69573v.64687A12.14678,12.14678,0,0,0,11.11406,24.00041h1.82813A12.10741,12.10741,0,0,0,24,12.33323v-.6375A12.08777,12.08777,0,0,0,12.62812.01448,12.13416,12.13416,0,0,0,0,11.69573Z"/><g id="Symbol"><path class="cls-2" d="M12.05625,6.02854c1.9125,0,2.1375.00469,2.89687.04219a3.82664,3.82664,0,0,1,1.32657.24843A2.20638,2.20638,0,0,1,17.1,6.86291a2.30772,2.30772,0,0,1,.53906.83438A4.23254,4.23254,0,0,1,17.8875,9.052c.0375.76875.04219.99843.04219,2.94375s-.00469,2.175-.04219,2.94375a3.89039,3.89039,0,0,1-.24844,1.35468,2.2479,2.2479,0,0,1-.53906.83438,2.20638,2.20638,0,0,1-.82031.54375,3.74126,3.74126,0,0,1-1.32657.24844c-.75468.0375-.98437.04218-2.89687.04218s-2.1375-.00468-2.89687-.04218a3.82657,3.82657,0,0,1-1.32657-.24844,2.20638,2.20638,0,0,1-.82031-.54375,2.30772,2.30772,0,0,1-.53906-.83438A4.23246,4.23246,0,0,1,6.225,14.93948c-.0375-.76875-.04219-.99844-.04219-2.94375S6.1875,9.82073,6.225,9.052a3.8904,3.8904,0,0,1,.24844-1.35469,2.248,2.248,0,0,1,.53906-.83438,2.20638,2.20638,0,0,1,.82031-.54375,3.74109,3.74109,0,0,1,1.32657-.24843c.75468-.03282.98437-.04219,2.89687-.04219m0-1.3125c-1.94531,0-2.18906.00937-2.94844.04687a5.30151,5.30151,0,0,0-1.73906.3375,3.43,3.43,0,0,0-1.26562.84375,3.57245,3.57245,0,0,0-.825,1.29375A5.32937,5.32937,0,0,0,4.94531,9.0051c-.0375.77344-.04218,1.02188-.04218,3s.00937,2.22656.04218,3a5.60826,5.60826,0,0,0,.33282,1.76719,3.61207,3.61207,0,0,0,.825,1.29375,3.50745,3.50745,0,0,0,1.26562.84375,5.06806,5.06806,0,0,0,1.73906.3375c.76407.0375,1.00782.04687,2.94844.04687s2.18906-.00937,2.94844-.04687a5.30151,5.30151,0,0,0,1.73906-.3375,3.43,3.43,0,0,0,1.26563-.84375,3.57263,3.57263,0,0,0,.825-1.29375,5.3294,5.3294,0,0,0,.33281-1.76719c.0375-.77344.04219-1.02187.04219-3s-.00938-2.22656-.04219-3a5.60863,5.60863,0,0,0-.33281-1.76719,3.61243,3.61243,0,0,0-.825-1.29375,3.50757,3.50757,0,0,0-1.26563-.84375,5.0683,5.0683,0,0,0-1.73906-.3375c-.75938-.0375-1.00781-.04687-2.94844-.04687Z"/><path class="cls-2" d="M12.05625,8.25979a3.74121,3.74121,0,1,0,3.675,3.74062A3.70439,3.70439,0,0,0,12.05625,8.25979Zm0,6.16875a2.4285,2.4285,0,1,1,2.38594-2.42813A2.40491,2.40491,0,0,1,12.05625,14.42854Z"/><ellipse class="cls-2" cx="15.87656" cy="8.10979" rx="0.85781" ry="0.87188"/></g></g></svg>