<svg id="Layer_1" data-name="Layer 1" xmlns="http://www.w3.org/2000/svg" viewBox="0 0 24 24"><defs><style>.cls-1{fill:#0077b5;}.cls-2{fill:#fff;}</style></defs><title>linkedin_24px</title><g id="linkedin"><circle class="cls-1" cx="12" cy="12" r="12"/><path id="linkedin-square-rounded-icon" class="cls-2" d="M8.75625,17.42344H6.32344V9.56719H8.75625v7.85625ZM7.52813,8.54062A1.44847,1.44847,0,1,1,8.96719,7.09219,1.4444,1.4444,0,0,1,7.52813,8.54062Zm10.34062,8.88282H15.45v-4.125c0-1.12969-.43125-1.7625-1.32188-1.7625-.975,0-1.48125.65625-1.48125,1.7625v4.125H10.3125V9.56719h2.33437v1.05937a2.7427,2.7427,0,0,1,2.36719-1.29843c1.66406,0,2.85938,1.01718,2.85938,3.12187C17.86875,14.55469,17.86875,17.42344,17.86875,17.42344Z"/></g></svg>