<svg id="Layer_1" data-name="Layer 1" xmlns="http://www.w3.org/2000/svg" viewBox="0 0 24 24"><defs><style>.cls-1{fill:#1da1f2;}.cls-2{fill:#fff;}</style></defs><title>twitter_24px</title><g id="twitter"><path class="cls-1" d="M24,12A12,12,0,1,1,12,0,11.9991,11.9991,0,0,1,24,12Z"/><path id="twitter-4-icon" class="cls-2" d="M16.80469,9.51094A7.0019,7.0019,0,0,1,6.03281,15.72656a4.95113,4.95113,0,0,0,3.64688-1.01719,2.46414,2.46414,0,0,1-2.30157-1.71093,2.45357,2.45357,0,0,0,1.11094-.04219,2.46048,2.46048,0,0,1-1.97344-2.44688,2.49631,2.49631,0,0,0,1.11563.30938,2.46621,2.46621,0,0,1-.76406-3.28594,6.9881,6.9881,0,0,0,5.07656,2.57344,2.46322,2.46322,0,0,1,4.19531-2.24531,5.01678,5.01678,0,0,0,1.56563-.59532,2.473,2.473,0,0,1-1.08282,1.36407,4.99049,4.99049,0,0,0,1.41563-.38907A5.20588,5.20588,0,0,1,16.80469,9.51094Z"/></g></svg>