<svg id="Layer_1" data-name="Layer 1" xmlns="http://www.w3.org/2000/svg" viewBox="0 0 24 24"><defs><style>.cls-1{fill:#41474f;}</style></defs><title>web_24px</title><path class="cls-1" d="M12,0A12,12,0,1,0,24,12,12.01343,12.01343,0,0,0,12,0ZM11,6.94952A9.89657,9.89657,0,0,1,7.97705,6.1629C8.70386,4.18652,9.77588,2.73138,11,2.21106Zm0,1.99829V11H7.02637a17.9653,17.9653,0,0,1,.39184-2.92316A12.01351,12.01351,0,0,0,11,8.94781ZM11,13v2.05219a12.00977,12.00977,0,0,0-3.58179.87084A17.93752,17.93752,0,0,1,7.02637,13Zm0,4.05048v4.73846c-1.22412-.52026-2.29614-1.97546-3.02295-3.95178A9.89494,9.89494,0,0,1,11,17.05048Zm2,.00171a10.02651,10.02651,0,0,1,3.01855.79644C15.292,19.819,14.22192,21.26965,13,21.78894Zm0-2V13h3.97363a17.93677,17.93677,0,0,1-.39184,2.923A12.01146,12.01146,0,0,0,13,15.05219ZM13,11V8.94781a12.01351,12.01351,0,0,0,3.58179-.871A17.9653,17.9653,0,0,1,16.97363,11Zm0-4.05048V2.21106c1.22412.52032,2.29614,1.97546,3.023,3.95184A9.89657,9.89657,0,0,1,13,6.94952Zm3.82324-3.70391a10.04121,10.04121,0,0,1,1.7793,1.26373,10.07342,10.07342,0,0,1-.81909.65253A12.27454,12.27454,0,0,0,16.82324,3.24561ZM6.21655,5.16187a10.07342,10.07342,0,0,1-.81909-.65253,10.04121,10.04121,0,0,1,1.7793-1.26373A12.27454,12.27454,0,0,0,6.21655,5.16187ZM5.58765,7.121A19.50359,19.50359,0,0,0,5.02856,11H2.05078A9.93555,9.93555,0,0,1,4.03955,5.97253,11.98594,11.98594,0,0,0,5.58765,7.121ZM5.02856,13a19.5042,19.5042,0,0,0,.55909,3.879A11.97945,11.97945,0,0,0,4.04,18.02783,9.93251,9.93251,0,0,1,2.05078,13Zm1.188,5.83838a12.29307,12.29307,0,0,0,.96021,1.916A10.04773,10.04773,0,0,1,5.398,19.491,10.07845,10.07845,0,0,1,6.21655,18.83838Zm11.56421.00574a9.95942,9.95942,0,0,1,.82031.64788,10.03493,10.03493,0,0,1-1.77783,1.26239A12.27324,12.27324,0,0,0,17.78076,18.84412Zm.63184-1.96527A19.52094,19.52094,0,0,0,18.97144,13h2.97778a9.93382,9.93382,0,0,1-1.989,5.02759A11.97807,11.97807,0,0,0,18.4126,16.87885ZM18.97144,11a19.50359,19.50359,0,0,0-.55909-3.879,11.98594,11.98594,0,0,0,1.5481-1.1485A9.93555,9.93555,0,0,1,21.94922,11Z"/></svg>