<svg id="Layer_1" data-name="Layer 1" xmlns="http://www.w3.org/2000/svg" viewBox="0 0 24 24"><defs><style>.cls-1{fill:#cd201f;}.cls-2{fill:#fff;}</style></defs><title>youtube_24px</title><g id="youtube"><path class="cls-1" d="M24,12A12,12,0,1,1,12,0,11.9991,11.9991,0,0,1,24,12Z"/><path class="cls-2" d="M18.33281,9.12188C18.225,8.18906,18,7.91719,17.84063,7.79063a2.62444,2.62444,0,0,0-1.32657-.30938c-.98437-.06562-2.65781-.10781-4.4625-.10781-1.80937,0-3.47812.0375-4.4625.10781a2.6244,2.6244,0,0,0-1.32656.30938c-.15937.12656-.37969.39843-.49219,1.33125a34.71122,34.71122,0,0,0,0,5.75625c.1125.93281.33282,1.20468.49219,1.33125a2.62452,2.62452,0,0,0,1.32656.30937c.98438.06563,2.65313.10781,4.4625.10781s3.47813-.04218,4.4625-.10781a2.62453,2.62453,0,0,0,1.32657-.30937c.15937-.12188.37968-.39844.49218-1.33125A34.709,34.709,0,0,0,18.33281,9.12188Zm-7.82812,4.88906V9.98438l3.8625,2.01093Z"/></g></svg>